<svg xmlns="http://www.w3.org/2000/svg" viewBox="0 0 600 350">
  <!-- Background -->
  <rect width="600" height="350" fill="#f8f9fa" rx="10" ry="10"/>
  
  <!-- Title -->
  <text x="300" y="30" font-family="Arial, sans-serif" font-size="22" font-weight="bold" text-anchor="middle" fill="#1a1a1a">CPU Cache Misses: Performance Bottleneck</text>
  
  <!-- Memory Structure -->
  <g transform="translate(30, 55)">
    <!-- CPU -->
    <rect x="0" y="0" width="100" height="80" rx="5" ry="5" fill="#3498db" fill-opacity="0.8"/>
    <text x="50" y="45" font-family="Arial, sans-serif" font-size="16" font-weight="bold" text-anchor="middle" fill="white">CPU</text>
    
    <!-- L1/L2 Cache -->
    <rect x="140" y="0" width="100" height="80" rx="5" ry="5" fill="#27ae60" fill-opacity="0.8"/>
    <text x="190" y="45" font-family="Arial, sans-serif" font-size="16" font-weight="bold" text-anchor="middle" fill="white">Cache</text>
    
    <!-- Main Memory -->
    <rect x="280" y="0" width="270" height="80" rx="5" ry="5" fill="#e74c3c" fill-opacity="0.8"/>
    <text x="415" y="45" font-family="Arial, sans-serif" font-size="16" font-weight="bold" text-anchor="middle" fill="white">Main Memory</text>
    
    <!-- Connection lines -->
    <line x1="100" y1="40" x2="140" y2="40" stroke="#1a1a1a" stroke-width="2"/>
    <polygon points="140,40 133,36 133,44" fill="#1a1a1a"/>
    
    <line x1="240" y1="40" x2="280" y2="40" stroke="#1a1a1a" stroke-width="2"/>
    <polygon points="280,40 273,36 273,44" fill="#1a1a1a"/>
    
    <!-- Access times -->
    <text x="120" y="20" font-family="Arial, sans-serif" font-size="12" text-anchor="middle" fill="#1a1a1a">~1 cycle</text>
    <text x="260" y="20" font-family="Arial, sans-serif" font-size="12" text-anchor="middle" fill="#1a1a1a">~100-300 cycles</text>
  </g>
  
  <!-- Cache Structure -->
  <g transform="translate(30, 150)">
    <!-- Memory divided into cache lines -->
    <rect x="0" y="0" width="540" height="60" rx="0" ry="0" fill="#bdc3c7" fill-opacity="0.3" stroke="#7f8c8d" stroke-width="1"/>
    
    <!-- Cache lines -->
    <line x1="60" y1="0" x2="60" y2="60" stroke="#7f8c8d" stroke-width="1"/>
    <line x1="120" y1="0" x2="120" y2="60" stroke="#7f8c8d" stroke-width="1"/>
    <line x1="180" y1="0" x2="180" y2="60" stroke="#7f8c8d" stroke-width="1"/>
    <line x1="240" y1="0" x2="240" y2="60" stroke="#7f8c8d" stroke-width="1"/>
    <line x1="300" y1="0" x2="300" y2="60" stroke="#7f8c8d" stroke-width="1"/>
    <line x1="360" y1="0" x2="360" y2="60" stroke="#7f8c8d" stroke-width="1"/>
    <line x1="420" y1="0" x2="420" y2="60" stroke="#7f8c8d" stroke-width="1"/>
    <line x1="480" y1="0" x2="480" y2="60" stroke="#7f8c8d" stroke-width="1"/>
    
    <!-- Bit array -->
    <text x="270" y="-10" font-family="Arial, sans-serif" font-size="14" font-weight="bold" text-anchor="middle" fill="#1a1a1a">Bloom Filter Bit Array</text>
    
    <!-- Cache line labels -->
    <text x="30" y="76" font-family="Arial, sans-serif" font-size="12" text-anchor="middle" fill="#1a1a1a">Line 0</text>
    <text x="90" y="76" font-family="Arial, sans-serif" font-size="12" text-anchor="middle" fill="#1a1a1a">Line 1</text>
    <text x="150" y="76" font-family="Arial, sans-serif" font-size="12" text-anchor="middle" fill="#1a1a1a">Line 2</text>
    <text x="270" y="76" font-family="Arial, sans-serif" font-size="12" text-anchor="middle" fill="#1a1a1a">...</text>
    <text x="390" y="76" font-family="Arial, sans-serif" font-size="12" text-anchor="middle" fill="#1a1a1a">...</text>
    <text x="510" y="76" font-family="Arial, sans-serif" font-size="12" text-anchor="middle" fill="#1a1a1a">Line N</text>
    
    <!-- Bit accesses -->
    <circle cx="20" cy="30" r="8" fill="#e74c3c"/>
    <circle cx="140" cy="30" r="8" fill="#e74c3c"/>
    <circle cx="350" cy="30" r="8" fill="#e74c3c"/>
    <circle cx="470" cy="30" r="8" fill="#e74c3c"/>
    
    <!-- Labels -->
    <text x="20" y="30" font-family="Arial, sans-serif" font-size="10" font-weight="bold" text-anchor="middle" fill="white">1</text>
    <text x="140" y="30" font-family="Arial, sans-serif" font-size="10" font-weight="bold" text-anchor="middle" fill="white">2</text>
    <text x="350" y="30" font-family="Arial, sans-serif" font-size="10" font-weight="bold" text-anchor="middle" fill="white">3</text>
    <text x="470" y="30" font-family="Arial, sans-serif" font-size="10" font-weight="bold" text-anchor="middle" fill="white">4</text>
  </g>
  
  <!-- Performance Impact -->
  <g transform="translate(30, 245)">
    <rect x="0" y="0" width="540" height="90" rx="5" ry="5" fill="#f39c12" fill-opacity="0.1" stroke="#f39c12" stroke-width="2"/>
    
    <text x="270" y="25" font-family="Arial, sans-serif" font-size="16" font-weight="bold" text-anchor="middle" fill="#1a1a1a">Impact of Random Bit Access:</text>
    <text x="20" y="50" font-family="Arial, sans-serif" font-size="14" text-anchor="start" fill="#1a1a1a">• Each random bit access can cause a cache miss</text>
    <text x="20" y="75" font-family="Arial, sans-serif" font-size="14" text-anchor="start" fill="#1a1a1a">• Cache misses are 100-300x slower than cache hits</text>
  </g>
</svg>
